# xmcd
#
# Track frame offsets: 
#        150
#        13402
#        26430
#        37470
#        51700
#        69660
#        81887
#        94830
#        106112
#        120225
#        130150
#        142282
#        155620
#        172132
#        183392
#
# Disc length: 2616 seconds
#
# Revision: 6
# Processed by: cddbd v1.5.2PL0 Copyright (c) Steve Scherf et al.
# Submitted via: ExactAudioCopyFreeDBPlugin 1.0
#
DISCID=df0a360f
DTITLE=Charlie Rich - Behind Closed Doors [Bonus Tracks]
DYEAR=2001
DGENRE=Country
TTITLE0=Behind Closed Doors
TTITLE1=If You Wouldn't Be My Lady
TTITLE2=You Never Really Wanted Me
TTITLE3=A Sunday Kind Of Woman
TTITLE4=Peace On You
TTITLE5=The Most Beautiful Girl
TTITLE6=I Take It On Home
TTITLE7='Til I Can't Take It Anymore
TTITLE8=We Love Each Other
TTITLE9=I'm Not Going Hungry
TTITLE10=Nothing In The World (To Do With Me)
TTITLE11=Mama, Take Me Home [Bonus Track]
TTITLE12=Ruby, You're Warm [Bonus Track]
TTITLE13=Papa Was A Good Man [Bonus Track]
TTITLE14=I've Got Mine [Bonus Track]
EXTD=
EXTT0=
EXTT1=
EXTT2=
EXTT3=
EXTT4=
EXTT5=
EXTT6=
EXTT7=
EXTT8=
EXTT9=
EXTT10=
EXTT11=
EXTT12=
EXTT13=
EXTT14=
PLAYORDER=
